<svg xmlns="http://www.w3.org/2000/svg" version="1.1" xmlns:xlink="http://www.w3.org/1999/xlink" xmlns:svgjs="http://svgjs.dev/svgjs" width="2000" height="1500" viewBox="0 0 2000 1500"><rect width="2000" height="1500" fill="#ffffff"></rect><g transform="matrix(0.75,0,0,0.75,250.15999999999997,615.2468587264926)"><svg viewBox="0 0 375 67" data-background-color="#ffffff" preserveAspectRatio="xMidYMid meet" height="357" width="2000" xmlns="http://www.w3.org/2000/svg" xmlns:xlink="http://www.w3.org/1999/xlink"><g id="tight-bounds" transform="matrix(1,0,0,1,-0.03976000000000113,0.22005029999999692)"><svg viewBox="0 0 375.07953 66.5602094" height="66.5602094" width="375.07953"><g><svg></svg></g><g><svg viewBox="0 0 375.07953 66.5602094" height="66.5602094" width="375.07953"><g transform="matrix(1,0,0,1,-10.22024,-92.14331)"><path d="M10.22 155.057v-62.914h375.08v62.914l-125.79 0v-2.092h123.698v-58.73h-370.896v58.73l41.101 0 0 2.092z" fill="#3b75f3" fill-rule="nonzero" stroke="none" stroke-width="1" stroke-linecap="butt" stroke-linejoin="miter" stroke-miterlimit="10" stroke-dasharray="" stroke-dashoffset="0" font-family="none" font-weight="none" font-size="none" text-anchor="none" style="mix-blend-mode: normal" data-fill-palette-color="tertiary"></path><g><path transform="translate(59.2661,156.63128) scale(0.19223,0.19223)" d="M15.18 0.5v0c-2.5 0-4.723-0.4-6.67-1.2-1.94-0.8-3.467-2.04-4.58-3.72-1.12-1.687-1.697-3.863-1.73-6.53v0h4.6c0.033 1.8 0.45 3.23 1.25 4.29 0.8 1.053 1.847 1.81 3.14 2.27 1.293 0.46 2.68 0.69 4.16 0.69v0c1.72 0 3.14-0.253 4.26-0.76 1.127-0.513 1.973-1.187 2.54-2.02 0.567-0.833 0.85-1.723 0.85-2.67v0c0-1.367-0.35-2.477-1.05-3.33-0.7-0.847-1.7-1.557-3-2.13-1.3-0.58-2.84-1.15-4.62-1.71v0c-1.967-0.64-3.757-1.443-5.37-2.41-1.607-0.967-2.883-2.153-3.83-3.56-0.953-1.407-1.43-3.077-1.43-5.01v0c0-2.133 0.527-3.913 1.58-5.34 1.047-1.42 2.45-2.49 4.21-3.21 1.76-0.72 3.697-1.08 5.81-1.08v0c3.167 0 5.75 0.84 7.75 2.52 2 1.673 3.21 4.217 3.63 7.63v0h-4.45c-0.153-1.133-0.493-2.15-1.02-3.05-0.52-0.9-1.273-1.61-2.26-2.13-0.98-0.527-2.247-0.79-3.8-0.79v0c-2.133 0-3.823 0.467-5.07 1.4-1.253 0.933-1.88 2.223-1.88 3.87v0c0 1.167 0.23 2.163 0.69 2.99 0.46 0.827 1.26 1.577 2.4 2.25 1.14 0.673 2.72 1.377 4.74 2.11v0c1.447 0.52 2.857 1.063 4.23 1.63 1.38 0.567 2.613 1.237 3.7 2.01 1.093 0.773 1.967 1.733 2.62 2.88 0.647 1.14 0.97 2.55 0.97 4.23v0c0.02 2.067-0.483 3.84-1.51 5.32-1.027 1.473-2.47 2.6-4.33 3.38-1.853 0.787-4.03 1.18-6.53 1.18zM49.15-0.65h-4.5v-19.3c0-0.833 0.15-1.537 0.45-2.11 0.3-0.58 0.883-0.903 1.75-0.97v0l-2.2-0.85-0.17-2.12 4.75-1.28zM57.28 0h-21.53v-3.78h21.53zM48.05-23.03h-13.05v-4.25h14.23zM46.73-32.08v0c-1.02 0-1.883-0.35-2.59-1.05-0.707-0.7-1.06-1.607-1.06-2.72v0c0-1.133 0.353-2.053 1.06-2.76 0.707-0.713 1.57-1.07 2.59-1.07v0c1.013 0 1.873 0.357 2.58 1.07 0.713 0.707 1.07 1.627 1.07 2.76v0c0 1.113-0.36 2.02-1.08 2.72-0.713 0.7-1.57 1.05-2.57 1.05zM66.13 0h-4.15l0.1-27.3h3.7l0.39 8.2-0.34 0.28c0.227-2.84 0.897-5.053 2.01-6.64 1.107-1.593 2.643-2.39 4.61-2.39v0c1.067 0 1.96 0.237 2.68 0.71 0.713 0.473 1.25 1.27 1.61 2.39 0.36 1.113 0.54 2.653 0.54 4.62v0l0.02 0.2v19.93h-4.1v-19.13c0-1.633-0.207-2.77-0.62-3.41-0.42-0.64-1.04-0.96-1.86-0.96v0c-0.713 0-1.473 0.27-2.28 0.81-0.813 0.54-1.553 1.627-2.22 3.26v0zM88.4 0h-4.15v-19.3c0-1.453-0.203-2.517-0.61-3.19-0.407-0.673-1.07-1.01-1.99-1.01v0c-1.013 0-1.87 0.353-2.57 1.06-0.7 0.707-1.293 1.71-1.78 3.01v0l-0.55 1.58 0.22-1.3c0.32-2.833 1.04-4.993 2.16-6.48 1.113-1.48 2.597-2.22 4.45-2.22v0c1.593 0 2.797 0.617 3.61 1.85 0.807 1.233 1.21 3.257 1.21 6.07v0zM99.05 10.08h-4.63v-37.38h4.58l0.05 3.7v17.42l-0.33 1.33 0.33 4.88zM107.4-27.8v0c1.967 0 3.67 0.513 5.11 1.54 1.44 1.02 2.557 2.527 3.35 4.52 0.793 1.993 1.19 4.44 1.19 7.34v0c0 3.047-0.517 5.67-1.55 7.87-1.033 2.2-2.4 3.89-4.1 5.07-1.7 1.173-3.557 1.76-5.57 1.76v0c-0.987 0-1.983-0.23-2.99-0.69-1.007-0.453-1.887-1.087-2.64-1.9-0.747-0.807-1.24-1.737-1.48-2.79v0l-1.44-0.72 1.64-1.73c0.253 0.92 0.693 1.663 1.32 2.23 0.62 0.567 1.337 0.973 2.15 1.22 0.807 0.253 1.593 0.38 2.36 0.38v0c1.447 0 2.74-0.41 3.88-1.23 1.133-0.813 2.023-2.017 2.67-3.61 0.653-1.593 0.98-3.557 0.98-5.89v0c0-2.98-0.523-5.28-1.57-6.9-1.04-1.613-2.677-2.42-4.91-2.42v0c-0.8 0-1.667 0.173-2.6 0.52-0.933 0.353-1.783 0.897-2.55 1.63-0.767 0.733-1.3 1.683-1.6 2.85v0l-0.25-1.68 0.23-0.9c0.2-1.247 0.7-2.357 1.5-3.33 0.793-0.98 1.793-1.747 3-2.3 1.2-0.56 2.49-0.84 3.87-0.84zM139.25 0.38v0c-1.8 0-3.32-0.27-4.56-0.81-1.247-0.533-2.19-1.387-2.83-2.56-0.64-1.173-0.96-2.72-0.96-4.64v0-24.5c0-0.78 0.153-1.397 0.46-1.85 0.307-0.447 0.747-0.703 1.32-0.77v0h-9.83v-4.15h12.93l-0.06 30.55c0 1.747 0.313 2.913 0.94 3.5 0.627 0.58 1.75 0.87 3.37 0.87v0c1.527 0 2.82-0.133 3.88-0.4 1.06-0.267 2.057-0.607 2.99-1.02v0 4.45c-0.913 0.367-2.037 0.68-3.37 0.94-1.333 0.26-2.76 0.39-4.28 0.39zM165.85 0.38v0c-2.253 0-4.3-0.543-6.14-1.63-1.84-1.087-3.307-2.683-4.4-4.79-1.087-2.107-1.63-4.687-1.63-7.74v0c0-2.947 0.51-5.47 1.53-7.57 1.027-2.1 2.437-3.703 4.23-4.81 1.793-1.113 3.83-1.67 6.11-1.67v0c3.333 0 6.007 1.107 8.02 3.32 2.02 2.207 3.03 5.327 3.03 9.36v0c0 0.533-0.017 0.973-0.05 1.32-0.033 0.353-0.06 0.72-0.08 1.1v0h-18.25c0.04 2.053 0.42 3.747 1.14 5.08 0.727 1.333 1.67 2.33 2.83 2.99 1.16 0.653 2.407 0.98 3.74 0.98v0c1.633 0 2.923-0.317 3.87-0.95 0.947-0.633 1.58-1.673 1.9-3.12v0h4.37c-0.167 1.7-0.693 3.153-1.58 4.36-0.893 1.207-2.073 2.137-3.54 2.79-1.467 0.653-3.167 0.98-5.1 0.98zM158.22-14.45v0c0.14-0.7 0.433-1.17 0.88-1.41 0.453-0.247 1.063-0.37 1.83-0.37v0h10.97c-0.013-2.48-0.547-4.357-1.6-5.63-1.053-1.28-2.62-1.92-4.7-1.92v0c-2.4 0-4.22 0.833-5.46 2.5-1.24 1.667-1.88 3.943-1.92 6.83zM228.03 0.38v0c-1.733 0-3.223-0.277-4.47-0.83-1.24-0.553-2.19-1.417-2.85-2.59-0.66-1.173-0.99-2.703-0.99-4.59v0-12.02c0-0.453 0.077-0.93 0.23-1.43 0.153-0.5 0.4-0.94 0.74-1.32 0.34-0.387 0.793-0.62 1.36-0.7v0l-2.35-3.1 0.1-0.85 1.13-9.8h3.62v28.5c0 1.767 0.363 2.937 1.09 3.51 0.72 0.573 1.923 0.86 3.61 0.86v0c1.147 0 2.143-0.063 2.99-0.19 0.84-0.14 1.59-0.317 2.25-0.53 0.653-0.22 1.283-0.453 1.89-0.7v0 4.45c-1 0.367-2.157 0.68-3.47 0.94-1.307 0.26-2.933 0.39-4.88 0.39zM234.05-23.1h-20.7v-4.2h20.7zM255 0.38v0c-2.313 0-4.367-0.547-6.16-1.64-1.793-1.093-3.197-2.693-4.21-4.8-1.02-2.107-1.53-4.687-1.53-7.74v0c0-2.933 0.527-5.447 1.58-7.54 1.047-2.093 2.47-3.697 4.27-4.81 1.8-1.12 3.817-1.68 6.05-1.68v0c2.38 0 4.463 0.56 6.25 1.68 1.787 1.113 3.173 2.717 4.16 4.81 0.993 2.093 1.49 4.607 1.49 7.54v0c0 3.067-0.53 5.653-1.59 7.76-1.053 2.107-2.483 3.703-4.29 4.79-1.8 1.087-3.807 1.63-6.02 1.63zM255-3.73v0c2.12 0 3.84-0.827 5.16-2.48 1.327-1.66 1.99-4.19 1.99-7.59v0c0-3.233-0.647-5.697-1.94-7.39-1.293-1.693-3.03-2.54-5.21-2.54v0c-2.12 0-3.84 0.847-5.16 2.54-1.327 1.693-1.99 4.157-1.99 7.39v0c0 3.28 0.663 5.78 1.99 7.5 1.32 1.713 3.04 2.57 5.16 2.57zM285 0.38v0c-2.32 0-4.373-0.547-6.16-1.64-1.793-1.093-3.197-2.693-4.21-4.8-1.02-2.107-1.53-4.687-1.53-7.74v0c0-2.933 0.527-5.447 1.58-7.54 1.047-2.093 2.47-3.697 4.27-4.81 1.8-1.12 3.817-1.68 6.05-1.68v0c2.38 0 4.463 0.56 6.25 1.68 1.787 1.113 3.173 2.717 4.16 4.81 0.993 2.093 1.49 4.607 1.49 7.54v0c0 3.067-0.53 5.653-1.59 7.76-1.053 2.107-2.483 3.703-4.29 4.79-1.8 1.087-3.807 1.63-6.02 1.63zM285-3.73v0c2.12 0 3.84-0.827 5.16-2.48 1.327-1.66 1.99-4.19 1.99-7.59v0c0-3.233-0.647-5.697-1.94-7.39-1.293-1.693-3.03-2.54-5.21-2.54v0c-2.12 0-3.84 0.847-5.16 2.54-1.327 1.693-1.99 4.157-1.99 7.39v0c0 3.28 0.663 5.78 1.99 7.5 1.32 1.713 3.04 2.57 5.16 2.57zM319.25 0.38v0c-1.8 0-3.32-0.27-4.56-0.81-1.247-0.533-2.19-1.387-2.83-2.56-0.64-1.173-0.96-2.72-0.96-4.64v0-24.5c0-0.78 0.153-1.397 0.46-1.85 0.307-0.447 0.747-0.703 1.32-0.77v0h-9.83v-4.15h12.92l-0.04 30.55c0 1.747 0.31 2.913 0.93 3.5 0.627 0.58 1.747 0.87 3.36 0.87v0c1.533 0 2.83-0.133 3.89-0.4 1.06-0.267 2.057-0.607 2.99-1.02v0 4.45c-0.92 0.367-2.047 0.68-3.38 0.94-1.333 0.26-2.757 0.39-4.27 0.39zM378.02 0.38v0c-1.727 0-3.213-0.277-4.46-0.83-1.24-0.553-2.19-1.417-2.85-2.59-0.653-1.173-0.98-2.703-0.98-4.59v0-12.02c0-0.453 0.073-0.93 0.22-1.43 0.153-0.5 0.4-0.94 0.74-1.32 0.34-0.387 0.793-0.62 1.36-0.7v0l-2.35-3.1 0.1-0.85 1.13-9.8h3.62v28.5c0 1.767 0.363 2.937 1.09 3.51 0.727 0.573 1.93 0.86 3.61 0.86v0c1.153 0 2.15-0.063 2.99-0.19 0.84-0.14 1.59-0.317 2.25-0.53 0.66-0.22 1.29-0.453 1.89-0.7v0 4.45c-1 0.367-2.157 0.68-3.47 0.94-1.307 0.26-2.937 0.39-4.89 0.39zM384.05-23.1h-20.7v-4.2h20.7zM405 0.38v0c-2.32 0-4.373-0.547-6.16-1.64-1.793-1.093-3.197-2.693-4.21-4.8-1.02-2.107-1.53-4.687-1.53-7.74v0c0-2.933 0.527-5.447 1.58-7.54 1.047-2.093 2.47-3.697 4.27-4.81 1.8-1.12 3.817-1.68 6.05-1.68v0c2.38 0 4.463 0.56 6.25 1.68 1.787 1.113 3.173 2.717 4.16 4.81 0.993 2.093 1.49 4.607 1.49 7.54v0c0 3.067-0.53 5.653-1.59 7.76-1.053 2.107-2.483 3.703-4.29 4.79-1.8 1.087-3.807 1.63-6.02 1.63zM405-3.73v0c2.12 0 3.84-0.827 5.16-2.48 1.327-1.66 1.99-4.19 1.99-7.59v0c0-3.233-0.647-5.697-1.94-7.39-1.293-1.693-3.03-2.54-5.21-2.54v0c-2.12 0-3.84 0.847-5.16 2.54-1.327 1.693-1.99 4.157-1.99 7.39v0c0 3.28 0.663 5.78 1.99 7.5 1.32 1.713 3.04 2.57 5.16 2.57zM468.02 0.38v0c-1.727 0-3.213-0.277-4.46-0.83-1.24-0.553-2.19-1.417-2.85-2.59-0.653-1.173-0.98-2.703-0.98-4.59v0-12.02c0-0.453 0.073-0.93 0.22-1.43 0.153-0.5 0.4-0.94 0.74-1.32 0.34-0.387 0.793-0.62 1.36-0.7v0l-2.35-3.1 0.1-0.85 1.13-9.8h3.62v28.5c0 1.767 0.363 2.937 1.09 3.51 0.727 0.573 1.93 0.86 3.61 0.86v0c1.153 0 2.15-0.063 2.99-0.19 0.84-0.14 1.59-0.317 2.25-0.53 0.66-0.22 1.29-0.453 1.89-0.7v0 4.45c-1 0.367-2.157 0.68-3.47 0.94-1.307 0.26-2.937 0.39-4.89 0.39zM474.05-23.1h-20.7v-4.2h20.7zM501.95 0h-19.02v-3.78h19.02zM490.82-23.03h-8.17v-4.3h8zM492.93-0.5h-4.66v-19.88c0-0.913 0.157-1.553 0.47-1.92 0.307-0.367 0.81-0.61 1.51-0.73v0l-1.98-1.47v-2.83h4.03l0.33 7.33c0.413-1.567 1.07-2.937 1.97-4.11 0.9-1.18 1.957-2.097 3.17-2.75 1.22-0.66 2.487-0.99 3.8-0.99v0c2.273 0 4.033 0.837 5.28 2.51 1.253 1.673 1.837 4.227 1.75 7.66v0h-4.55c-0.033-2.113-0.387-3.613-1.06-4.5-0.673-0.88-1.753-1.32-3.24-1.32v0c-1.333 0-2.643 0.513-3.93 1.54-1.28 1.02-2.243 2.257-2.89 3.71v0 12.5c0 0.533-0.123 0.963-0.37 1.29-0.24 0.32-0.627 0.547-1.16 0.68v0l1.53 0.93zM522.35 0.3v0c-2.567 0-4.597-0.687-6.09-2.06-1.493-1.38-2.24-3.237-2.24-5.57v0c0-2.033 0.663-3.693 1.99-4.98 1.327-1.293 3.35-2.2 6.07-2.72v0c1.047-0.2 2.11-0.367 3.19-0.5 1.087-0.133 2.137-0.243 3.15-0.33 1.02-0.093 1.947-0.157 2.78-0.19v0-2.1c0-2.053-0.47-3.52-1.41-4.4-0.94-0.887-2.403-1.33-4.39-1.33v0c-2.087 0-3.657 0.43-4.71 1.29-1.06 0.86-1.557 2.33-1.49 4.41v0h-4.35c-0.2-1.933 0.113-3.62 0.94-5.06 0.82-1.44 2.06-2.56 3.72-3.36 1.66-0.8 3.63-1.2 5.91-1.2v0c3.373 0 5.927 0.83 7.66 2.49 1.727 1.653 2.59 4.09 2.59 7.31v0 18h-4.44l-0.03-5.93c-0.353 1.22-0.953 2.3-1.8 3.24-0.847 0.94-1.877 1.673-3.09 2.2-1.207 0.527-2.527 0.79-3.96 0.79zM523.67-3.38v0c1.12 0 2.217-0.21 3.29-0.63 1.08-0.427 2.01-0.987 2.79-1.68 0.78-0.693 1.263-1.44 1.45-2.24v0-5.3c-0.6 0.033-1.297 0.097-2.09 0.19-0.793 0.093-1.58 0.203-2.36 0.33-0.78 0.12-1.473 0.247-2.08 0.38v0c-2.127 0.467-3.617 1.067-4.47 1.8-0.853 0.733-1.28 1.717-1.28 2.95v0c0 1.3 0.413 2.323 1.24 3.07 0.827 0.74 1.997 1.117 3.51 1.13zM555.83 0.45v0c-2.467 0-4.61-0.58-6.43-1.74-1.82-1.16-3.233-2.793-4.24-4.9-1.007-2.107-1.51-4.593-1.51-7.46v0c0-3.02 0.513-5.583 1.54-7.69 1.027-2.107 2.443-3.71 4.25-4.81 1.807-1.1 3.87-1.65 6.19-1.65v0c2.28 0 4.21 0.483 5.79 1.45 1.587 0.967 2.797 2.25 3.63 3.85 0.833 1.6 1.267 3.35 1.3 5.25v0h-4.62c-0.04-0.8-0.18-1.587-0.42-2.36-0.24-0.78-0.607-1.48-1.1-2.1-0.487-0.627-1.113-1.123-1.88-1.49-0.773-0.367-1.71-0.55-2.81-0.55v0c-2.413-0.02-4.21 0.86-5.39 2.64-1.187 1.773-1.78 4.21-1.78 7.31v0c0 3.3 0.647 5.82 1.94 7.56 1.293 1.74 3.19 2.61 5.69 2.61v0c1.233 0 2.257-0.187 3.07-0.56 0.813-0.373 1.437-0.873 1.87-1.5 0.44-0.627 0.7-1.307 0.78-2.04v0h4.53c-0.053 1.567-0.533 2.967-1.44 4.2-0.913 1.233-2.14 2.207-3.68 2.92-1.54 0.707-3.3 1.06-5.28 1.06zM598.42 0h-6.17l-12.58-14.88 4.38-0.67 3.03 2.85zM580.05 0h-4.65v-38.9h4.65v20.3l-0.25 3.65v0.2l0.25 3.8zM587.35-17.3l-3.27 3.2-4.41-0.78 5.88-6.62 5.33-5.78h6.45zM637.63 10.78h-2.15v-4.38h2.15c1.28 0 2.27-0.15 2.97-0.45 0.7-0.3 1.23-0.727 1.59-1.28 0.36-0.547 0.657-1.187 0.89-1.92v0c0.267-0.833 0.49-1.457 0.67-1.87 0.18-0.42 0.463-0.713 0.85-0.88v0h-1.55l-9.92-27.28h5.27l3.77 12.23 3.5 10.32h0.18l3.3-10.32 3.75-12.23h5.23l-9.78 27.28c-0.6 1.653-1.17 3.14-1.71 4.46-0.54 1.327-1.177 2.46-1.91 3.4-0.733 0.947-1.663 1.67-2.79 2.17-1.127 0.5-2.563 0.75-4.31 0.75zM675 0.38v0c-2.32 0-4.373-0.547-6.16-1.64-1.793-1.093-3.197-2.693-4.21-4.8-1.02-2.107-1.53-4.687-1.53-7.74v0c0-2.933 0.523-5.447 1.57-7.54 1.053-2.093 2.48-3.697 4.28-4.81 1.8-1.12 3.817-1.68 6.05-1.68v0c2.387 0 4.47 0.56 6.25 1.68 1.78 1.113 3.167 2.717 4.16 4.81 0.993 2.093 1.49 4.607 1.49 7.54v0c0 3.067-0.53 5.653-1.59 7.76-1.053 2.107-2.483 3.703-4.29 4.79-1.793 1.087-3.8 1.63-6.02 1.63zM675-3.73v0c2.113 0 3.833-0.827 5.16-2.48 1.327-1.66 1.99-4.19 1.99-7.59v0c0-3.233-0.647-5.697-1.94-7.39-1.293-1.693-3.03-2.54-5.21-2.54v0c-2.113 0-3.833 0.847-5.16 2.54-1.327 1.693-1.99 4.157-1.99 7.39v0c0 3.28 0.663 5.78 1.99 7.5 1.327 1.713 3.047 2.57 5.16 2.57zM702.48 0.55v0c-2.373 0-4.29-0.8-5.75-2.4-1.473-1.6-2.21-3.833-2.21-6.7v0-18.75h4.63v17.8c0 1.9 0.373 3.323 1.12 4.27 0.753 0.953 1.97 1.43 3.65 1.43v0c1.487 0 2.783-0.403 3.89-1.21 1.113-0.813 2.043-1.937 2.79-3.37v0-18.92h4.67v27.3h-4l-0.52-9.47 0.5 1.25c-0.2 1.593-0.647 3.053-1.34 4.38-0.687 1.327-1.643 2.39-2.87 3.19-1.227 0.8-2.747 1.2-4.56 1.2zM741.95 0h-19.03v-3.78h19.03zM730.83-23.03h-8.18v-4.3h8zM732.92-0.5h-4.65v-19.88c0-0.913 0.157-1.553 0.47-1.92 0.307-0.367 0.81-0.61 1.51-0.73v0l-1.98-1.47v-2.83h4.03l0.33 7.33c0.413-1.567 1.07-2.937 1.97-4.11 0.9-1.18 1.957-2.097 3.17-2.75 1.22-0.66 2.49-0.99 3.81-0.99v0c2.267 0 4.023 0.837 5.27 2.51 1.253 1.673 1.837 4.227 1.75 7.66v0h-4.55c-0.033-2.113-0.387-3.613-1.06-4.5-0.673-0.88-1.753-1.32-3.24-1.32v0c-1.333 0-2.64 0.513-3.92 1.54-1.287 1.02-2.257 2.257-2.91 3.71v0 12.5c0 0.533-0.12 0.963-0.36 1.29-0.24 0.32-0.627 0.547-1.16 0.68v0l1.52 0.93zM795.85 0.38v0c-2.247 0-4.293-0.543-6.14-1.63-1.84-1.087-3.307-2.683-4.4-4.79-1.093-2.107-1.64-4.687-1.64-7.74v0c0-2.947 0.513-5.47 1.54-7.57 1.027-2.1 2.437-3.703 4.23-4.81 1.793-1.113 3.83-1.67 6.11-1.67v0c3.333 0 6.01 1.107 8.03 3.32 2.013 2.207 3.02 5.327 3.02 9.36v0c0 0.533-0.017 0.973-0.05 1.32-0.033 0.353-0.057 0.72-0.07 1.1v0h-18.25c0.027 2.053 0.403 3.747 1.13 5.08 0.727 1.333 1.67 2.33 2.83 2.99 1.153 0.653 2.397 0.98 3.73 0.98v0c1.64 0 2.933-0.317 3.88-0.95 0.953-0.633 1.587-1.673 1.9-3.12v0h4.38c-0.167 1.7-0.697 3.153-1.59 4.36-0.893 1.207-2.073 2.137-3.54 2.79-1.467 0.653-3.167 0.98-5.1 0.98zM788.23-14.45v0c0.127-0.7 0.417-1.17 0.87-1.41 0.447-0.247 1.053-0.37 1.82-0.37v0h10.98c-0.013-2.48-0.547-4.357-1.6-5.63-1.047-1.28-2.613-1.92-4.7-1.92v0c-2.4 0-4.22 0.833-5.46 2.5-1.247 1.667-1.883 3.943-1.91 6.83zM817.98 0h-5.4l10.44-15.08 0.03 2.95-10.2-15.15h5.25l5.3 8.23 1.62 2.85 1.53-2.8 5.25-8.28h5.43l-10.46 15.15 0.06-2.95 10.59 15.08h-5.34l-5.6-8.3-1.6-2.63-1.58 2.71zM849.05 10.08h-4.63v-37.38h4.58l0.05 3.7v17.42l-0.32 1.33 0.32 4.88zM857.4-27.8v0c1.967 0 3.67 0.513 5.11 1.54 1.44 1.02 2.557 2.527 3.35 4.52 0.793 1.993 1.19 4.44 1.19 7.34v0c0 3.047-0.517 5.67-1.55 7.87-1.033 2.2-2.4 3.89-4.1 5.07-1.7 1.173-3.557 1.76-5.57 1.76v0c-0.987 0-1.983-0.23-2.99-0.69-1.007-0.453-1.887-1.087-2.64-1.9-0.747-0.807-1.237-1.737-1.47-2.79v0l-1.46-0.72 1.65-1.73c0.253 0.92 0.693 1.663 1.32 2.23 0.62 0.567 1.337 0.973 2.15 1.22 0.807 0.253 1.593 0.38 2.36 0.38v0c1.447 0 2.74-0.41 3.88-1.23 1.133-0.813 2.023-2.017 2.67-3.61 0.647-1.593 0.97-3.557 0.97-5.89v0c0-2.98-0.52-5.28-1.56-6.9-1.04-1.613-2.677-2.42-4.91-2.42v0c-0.8 0-1.667 0.173-2.6 0.52-0.933 0.353-1.783 0.897-2.55 1.63-0.767 0.733-1.3 1.683-1.6 2.85v0l-0.25-1.68 0.22-0.9c0.207-1.247 0.707-2.357 1.5-3.33 0.807-0.98 1.807-1.747 3-2.3 1.207-0.56 2.5-0.84 3.88-0.84zM885.85 0.38v0c-2.247 0-4.293-0.543-6.14-1.63-1.84-1.087-3.307-2.683-4.4-4.79-1.093-2.107-1.64-4.687-1.64-7.74v0c0-2.947 0.513-5.47 1.54-7.57 1.027-2.1 2.437-3.703 4.23-4.81 1.793-1.113 3.83-1.67 6.11-1.67v0c3.333 0 6.01 1.107 8.03 3.32 2.013 2.207 3.02 5.327 3.02 9.36v0c0 0.533-0.017 0.973-0.05 1.32-0.033 0.353-0.057 0.72-0.07 1.1v0h-18.25c0.027 2.053 0.403 3.747 1.13 5.08 0.727 1.333 1.67 2.33 2.83 2.99 1.153 0.653 2.397 0.98 3.73 0.98v0c1.64 0 2.933-0.317 3.88-0.95 0.953-0.633 1.587-1.673 1.9-3.12v0h4.38c-0.167 1.7-0.697 3.153-1.59 4.36-0.893 1.207-2.073 2.137-3.54 2.79-1.467 0.653-3.167 0.98-5.1 0.98zM878.23-14.45v0c0.127-0.7 0.417-1.17 0.87-1.41 0.447-0.247 1.053-0.37 1.82-0.37v0h10.98c-0.013-2.48-0.547-4.357-1.6-5.63-1.047-1.28-2.613-1.92-4.7-1.92v0c-2.4 0-4.22 0.833-5.46 2.5-1.247 1.667-1.883 3.943-1.91 6.83zM909.45 0h-4.65v-27.33h4.03l0.47 9.9-0.47-1.67c0.367-2.82 1.313-4.983 2.84-6.49 1.54-1.507 3.55-2.26 6.03-2.26v0c2.533 0 4.47 0.817 5.81 2.45 1.34 1.633 2.01 3.983 2.01 7.05v0 18.35h-4.64v-16.82c0-2.34-0.38-4.037-1.14-5.09-0.76-1.06-1.99-1.59-3.69-1.59v0c-1.42 0-2.703 0.403-3.85 1.21-1.147 0.807-2.063 1.927-2.75 3.36v0zM945.3 0.43v0c-1.3 0-2.583-0.14-3.85-0.42-1.267-0.273-2.433-0.723-3.5-1.35-1.067-0.62-1.937-1.467-2.61-2.54-0.673-1.067-1.077-2.4-1.21-4v0h4.79c0.167 1.567 0.877 2.7 2.13 3.4 1.247 0.7 2.68 1.05 4.3 1.05v0c1.867 0 3.353-0.26 4.46-0.78 1.113-0.527 1.67-1.533 1.67-3.02v0c0-0.88-0.263-1.597-0.79-2.15-0.527-0.547-1.287-1.007-2.28-1.38-0.993-0.38-2.197-0.743-3.61-1.09v0c-1.167-0.287-2.32-0.607-3.46-0.96-1.14-0.36-2.173-0.833-3.1-1.42-0.927-0.58-1.667-1.353-2.22-2.32-0.547-0.967-0.82-2.2-0.82-3.7v0c0-1.487 0.397-2.797 1.19-3.93 0.793-1.133 1.94-2.017 3.44-2.65 1.5-0.633 3.313-0.95 5.44-0.95v0c1.72 0 3.317 0.263 4.79 0.79 1.473 0.527 2.683 1.37 3.63 2.53 0.94 1.153 1.46 2.69 1.56 4.61v0h-4.67c-0.053-0.8-0.273-1.51-0.66-2.13-0.38-0.613-0.953-1.097-1.72-1.45-0.767-0.347-1.75-0.52-2.95-0.52v0c-1.1 0-2.067 0.117-2.9 0.35-0.833 0.233-1.483 0.617-1.95 1.15-0.467 0.533-0.7 1.25-0.7 2.15v0c0 0.88 0.28 1.603 0.84 2.17 0.56 0.567 1.33 1.03 2.31 1.39 0.987 0.36 2.113 0.697 3.38 1.01v0c1.1 0.267 2.233 0.583 3.4 0.95 1.167 0.367 2.24 0.843 3.22 1.43 0.987 0.58 1.783 1.333 2.39 2.26 0.607 0.927 0.91 2.09 0.91 3.49v0c-0.013 2.4-0.883 4.337-2.61 5.81-1.727 1.48-4.473 2.22-8.24 2.22zM975.85 0.38v0c-2.247 0-4.293-0.543-6.14-1.63-1.84-1.087-3.307-2.683-4.4-4.79-1.093-2.107-1.64-4.687-1.64-7.74v0c0-2.947 0.513-5.47 1.54-7.57 1.027-2.1 2.437-3.703 4.23-4.81 1.793-1.113 3.83-1.67 6.11-1.67v0c3.333 0 6.01 1.107 8.03 3.32 2.013 2.207 3.02 5.327 3.02 9.36v0c0 0.533-0.017 0.973-0.05 1.32-0.033 0.353-0.057 0.72-0.07 1.1v0h-18.25c0.027 2.053 0.403 3.747 1.13 5.08 0.727 1.333 1.67 2.33 2.83 2.99 1.153 0.653 2.397 0.98 3.73 0.98v0c1.64 0 2.933-0.317 3.88-0.95 0.953-0.633 1.587-1.673 1.9-3.12v0h4.38c-0.167 1.7-0.697 3.153-1.59 4.36-0.893 1.207-2.073 2.137-3.54 2.79-1.467 0.653-3.167 0.98-5.1 0.98zM968.23-14.45v0c0.127-0.7 0.417-1.17 0.87-1.41 0.447-0.247 1.053-0.37 1.82-0.37v0h10.98c-0.013-2.48-0.547-4.357-1.6-5.63-1.047-1.28-2.613-1.92-4.7-1.92v0c-2.4 0-4.22 0.833-5.46 2.5-1.247 1.667-1.883 3.943-1.91 6.83zM1006.73-13.23h-3.48l-1-16.95-0.5-12.32h6.48l-0.5 12.32zM1005 0.73v0c-1.167 0-2.133-0.397-2.9-1.19-0.767-0.793-1.15-1.84-1.15-3.14v0c0-1.287 0.383-2.33 1.15-3.13 0.767-0.8 1.733-1.2 2.9-1.2v0c1.167 0 2.133 0.4 2.9 1.2 0.767 0.8 1.15 1.843 1.15 3.13v0c0 1.3-0.383 2.347-1.15 3.14-0.767 0.793-1.733 1.19-2.9 1.19z" fill="#0a0e4e" fill-rule="nonzero" stroke="none" stroke-width="1" stroke-linecap="butt" stroke-linejoin="miter" stroke-miterlimit="10" stroke-dasharray="" stroke-dashoffset="0" font-family="none" font-weight="none" font-size="none" text-anchor="none" style="mix-blend-mode: normal" data-fill-palette-color="secondary" id="text-1"></path></g></g><g transform="matrix(1,0,0,1,29.33176499999999,21.578937636394418)"><svg viewBox="0 0 316.416 23.40233412721117" height="23.40233412721117" width="316.416"><g><svg viewBox="0 0 359.50405546374463 26.589154865904405" height="23.40233412721117" width="316.416"><g transform="matrix(1,0,0,1,43.08805546374464,0.11675550230553)"><svg viewBox="0 0 316.416 26.355643861293345" height="26.355643861293345" width="316.416"><g id="textblocktransform"><svg viewBox="0 0 316.416 26.355643861293345" height="26.355643861293345" width="316.416" id="textblock"><g><svg viewBox="0 0 316.416 26.355643861293345" height="26.355643861293345" width="316.416"><g transform="matrix(1,0,0,1,0,0)"><svg width="316.416" viewBox="2.92 -36.25 444.56 37.03" height="26.355643861293345" data-palette-color="#000000"><path d="M25.26 0.78L25.26 0.78Q15.89 0.78 9.4-1.46 2.92-3.7 2.92-9.69L2.92-9.69 2.92-10 7.6-10 7.6-9.69Q7.6-6.41 12.01-4.84 16.41-3.28 25.26-3.28L25.26-3.28Q33.8-3.28 38.31-4.69 42.81-6.09 42.81-8.75L42.81-8.75Q42.81-10.68 40.1-12.01 37.4-13.33 33.88-14.19 30.36-15.05 27.08-15.55 23.8-16.04 22.6-16.25L22.6-16.25Q20.21-16.67 17.03-17.19 13.85-17.71 11.02-18.8 8.18-19.9 6.2-21.88 4.22-23.85 4.22-27.14L4.22-27.14Q4.22-31.3 8.88-33.78 13.54-36.25 24.84-36.25L24.84-36.25Q37.45-36.25 41.82-33.36 46.2-30.47 46.2-25.99L46.2-25.99 46.2-25.68 41.46-25.68 41.46-25.99Q41.46-29.38 37.58-30.81 33.7-32.24 24.84-32.24L24.84-32.24Q16.35-32.24 12.6-31.04 8.85-29.84 8.85-26.93L8.85-26.93Q8.85-25.57 10.89-24.51 12.92-23.44 15.73-22.63 18.54-21.82 21.54-21.28 24.53-20.73 26.46-20.42L26.46-20.42Q36.93-18.75 42.11-16.43 47.29-14.11 47.29-8.75L47.29-8.75Q47.29-3.96 41.51-1.59 35.73 0.78 25.26 0.78ZM60.36 0L55.67 0 55.67-35.57 82.6-35.57Q85.21-35.57 87.86-35.03 90.52-34.48 92.65-33.23 94.79-31.98 96.17-29.9 97.55-27.81 97.55-24.74L97.55-24.74Q97.55-21.67 96.2-19.58 94.84-17.5 92.68-16.25 90.52-15 87.86-14.45 85.21-13.91 82.6-13.91L82.6-13.91 60.36-13.91 60.36 0ZM60.36-31.67L60.36-17.76 82.6-17.76Q86.14-17.76 89.5-19.09 92.86-20.42 92.86-24.74L92.86-24.74Q92.86-29.06 89.45-30.36 86.04-31.67 82.6-31.67L82.6-31.67 60.36-31.67ZM147.5 0L105.67 0 105.67-35.57 147.08-35.57 147.08-31.67 110.36-31.67 110.36-20.26 142.65-20.26 142.65-16.41 110.36-16.41 110.36-3.8 147.5-3.8 147.5 0ZM160.15 0L155.67 0 155.67-35.57 160.57-35.57 189.84-5.47 190.04-5.47 189.84-8.75 189.84-35.57 194.32-35.57 194.32 0 189.37 0 160.25-29.95 160.04-29.95 160.15-26.61 160.15 0ZM225.82 0L205.67 0 205.67-35.57 225.82-35.57Q233.79-35.57 240.07-31.17 246.34-26.77 246.34-18.07L246.34-18.07 246.34-17.45Q246.34-8.75 240.07-4.38 233.79 0 225.82 0L225.82 0ZM210.35-31.67L210.35-3.8 225.82-3.8Q232.33-3.8 236.97-7.08 241.6-10.36 241.6-17.45L241.6-17.45 241.6-18.07Q241.6-25.21 236.97-28.44 232.33-31.67 225.82-31.67L225.82-31.67 210.35-31.67ZM266.34 0.26L261.55 0.26 251.24-35.57 256.08-35.57 263.48-8.75 264-5.94 264.21-5.94 264.73-8.75 272.44-35.57 277.59-35.57 285.56-8.75 286.08-5.78 286.29-5.78 286.76-8.75 293.95-35.57 298.74-35.57 288.43 0.26 283.63 0.26 275.72-26.93 275.09-30.05 274.88-30.05 274.21-26.93 266.34 0.26ZM346.91 0L303.06 0 303.06-3.85 322.64-3.85 322.64-31.72 303.06-31.72 303.06-35.57 346.91-35.57 346.91-31.72 327.33-31.72 327.33-3.85 346.91-3.85 346.91 0ZM375.24 0.78L375.24 0.78Q365.87 0.78 359.38-1.46 352.9-3.7 352.9-9.69L352.9-9.69 352.9-10 357.59-10 357.59-9.69Q357.59-6.41 361.99-4.84 366.39-3.28 375.24-3.28L375.24-3.28Q383.78-3.28 388.29-4.69 392.8-6.09 392.8-8.75L392.8-8.75Q392.8-10.68 390.09-12.01 387.38-13.33 383.86-14.19 380.35-15.05 377.07-15.55 373.78-16.04 372.59-16.25L372.59-16.25Q370.19-16.67 367.01-17.19 363.84-17.71 361-18.8 358.16-19.9 356.18-21.88 354.2-23.85 354.2-27.14L354.2-27.14Q354.2-31.3 358.86-33.78 363.52-36.25 374.83-36.25L374.83-36.25Q387.43-36.25 391.81-33.36 396.18-30.47 396.18-25.99L396.18-25.99 396.18-25.68 391.44-25.68 391.44-25.99Q391.44-29.38 387.56-30.81 383.68-32.24 374.83-32.24L374.83-32.24Q366.34-32.24 362.59-31.04 358.84-29.84 358.84-26.93L358.84-26.93Q358.84-25.57 360.87-24.51 362.9-23.44 365.71-22.63 368.52-21.82 371.52-21.28 374.51-20.73 376.44-20.42L376.44-20.42Q386.91-18.75 392.09-16.43 397.27-14.11 397.27-8.75L397.27-8.75Q397.27-3.96 391.49-1.59 385.71 0.78 375.24 0.78ZM447.48 0L405.66 0 405.66-35.57 447.06-35.57 447.06-31.67 410.34-31.67 410.34-20.26 442.64-20.26 442.64-16.41 410.34-16.41 410.34-3.8 447.48-3.8 447.48 0Z" opacity="1" transform="matrix(1,0,0,1,0,0)" fill="#000000" class="wordmark-text-0" data-fill-palette-color="primary" id="text-0"></path></svg></g></svg></g></svg></g></svg></g><g><svg viewBox="0 0 36.86612048354595 26.589154865904405" height="26.589154865904405" width="36.86612048354595"><g><svg xmlns="http://www.w3.org/2000/svg" xmlns:xlink="http://www.w3.org/1999/xlink" version="1.1" x="0" y="0" viewBox="2.392 15.663161114233933 95.21555555555555 68.67283888576607" enable-background="new 0 0 100 100" xml:space="preserve" height="26.589154865904405" width="36.86612048354595" class="icon-icon-0" data-fill-palette-color="accent" id="icon-0"><g fill="#60c960" data-fill-palette-color="accent"><path d="M48.66 70.732l7.125 3.032c2.458-3.65 7.597-3.277 7.597-3.277l12.511-36.193c-5.363-3.352-3.352-7.373-3.352-7.373l-12.51-4.468c0.013 4.204-7.374 2.755-7.374 2.755L44.839 50c0 0-2.01 1.272 4.914 1.496 0 0 8.937-2.904 8.937 4.693 0 0 1.118 6.701-4.467 7.371 0 0-8.439 0-11.369 3.574-2.929 3.576-2.929 8.151-2.929 8.151-0.001 0-1.683 1.902-7.32 1.456 0 0-11.446 0.224-21.277 7.595L2.392 63.784c0 0 13.181-5.138 15.861-9.384l19.66-21.894c0 0 1.864-1.614 5.139-1.117l3.464-0.061L51.696 16.1c0.115-0.337 0.48-0.516 0.815-0.403l30.367 10.33c0.337 0.114 0.518 0.479 0.402 0.816L64.225 82.873c-0.115 0.337-0.48 0.516-0.817 0.401L45.31 77.119C45.31 77.119 45.333 71.426 48.66 70.732z" fill="#60c960" data-fill-palette-color="accent"></path><path fill-rule="evenodd" clip-rule="evenodd" d="M60.601 31.236c3.108 1.2 6.217 2.399 9.326 3.598-0.483 0.36-0.964 0.727-1.475 1.024-0.819-0.317-1.64-0.632-2.46-0.949 0.101 0.48 0.233 1.107 0.092 1.756 0.903 0.348 1.806 0.696 2.706 1.044-0.47 0.377-0.959 0.708-1.45 1.032-0.566-0.218-1.133-0.436-1.7-0.654-1.392 2.102-3.488 2.617-6.197 1.745-0.068 0.17 0.031 0.368 0.081 0.52 0.845 2.514 1.666 5.112 2.521 7.652 0.067 0.203 0.158 0.402-0.006 0.615-0.308-0.118-0.655-0.253-1.028-0.397-0.325-0.126-0.776-0.207-1.006-0.389-0.145-0.111-0.32-0.786-0.416-1.06-0.755-2.195-1.429-4.223-2.21-6.454-0.104-0.295-0.388-0.827-0.359-1.063 0.051-0.451 0.465-0.967 0.518-1.342 2.506 1.222 4.926 1.562 6.06-0.591-1.8-0.753-3.731-1.448-5.583-2.18 0.466-0.384 0.968-0.692 1.454-1.033 1.475 0.57 2.951 1.139 4.427 1.709-0.084-0.974-0.797-1.921-1.971-2.482-0.854-0.407-1.828-0.647-2.774-1.071C59.611 31.877 60.111 31.565 60.601 31.236z" fill="#60c960" data-fill-palette-color="accent"></path><path d="M96.284 37.327l-11.916-9.83-1.126 3.278 6.112 5.043-0.451 0.451c0 0-4.443 4.462-0.157 10.079L70.95 66.557l-3.263 9.496 28.597-32.471C99.262 40.901 96.284 37.327 96.284 37.327z" fill="#60c960" data-fill-palette-color="accent"></path></g></svg></g></svg></g></svg></g></svg></g></svg></g><defs></defs></svg><rect width="375.07953" height="66.5602094" fill="none" stroke="none" visibility="hidden"></rect></g></svg></g></svg>